<?xml version="1.0" standalone="no"?>
<!DOCTYPE svg PUBLIC "-//W3C//DTD SVG 20010904//EN"
 "http://www.w3.org/TR/2001/REC-SVG-20010904/DTD/svg10.dtd">
<svg version="1.0" xmlns="http://www.w3.org/2000/svg"
 width="2560.000000pt" height="460.000000pt" viewBox="0 0 2560.000000 460.000000"
 preserveAspectRatio="xMidYMid meet">

<g transform="translate(0.000000,460.000000) scale(0.100000,-0.100000)"
fill="#000000" stroke="none">
<path d="M0 4190 l0 -410 1643 0 c1429 0 1650 -2 1706 -15 183 -43 338 -196
386 -380 19 -74 19 -193 0 -264 -45 -172 -181 -315 -354 -374 l-66 -22 -1657
-3 -1658 -3 0 -404 0 -404 1658 -3 1657 -3 66 -22 c319 -109 462 -463 306
-757 -41 -78 -135 -172 -213 -213 -125 -66 -21 -63 -1831 -63 l-1643 0 0 -410
0 -410 1648 0 c1134 0 1675 3 1737 11 387 47 737 261 955 584 96 143 177 338
211 510 21 104 19 398 -4 502 -50 233 -163 461 -310 628 l-44 49 55 65 c148
174 249 382 299 614 23 104 25 397 4 502 -115 586 -591 1029 -1174 1094 -65 7
-633 11 -1737 11 l-1640 0 0 -410z"/>
<path d="M4983 2913 c4 -1877 -1 -1741 72 -1960 153 -458 530 -792 1008 -895
136 -29 390 -31 517 -4 289 61 497 172 700 376 200 200 305 392 376 690 17 70
18 181 21 1778 l4 1702 -411 0 -410 0 -2 -1667 -3 -1668 -23 -59 c-77 -204
-253 -338 -462 -353 -241 -17 -463 132 -543 366 l-22 66 -3 1658 -2 1657 -411
0 -410 0 4 -1687z"/>
<path d="M16590 2558 c0 -417 5 -467 56 -575 16 -33 52 -82 84 -114 97 -98
215 -142 380 -142 250 0 436 135 495 358 12 48 15 132 15 457 l0 398 -134 0
-134 0 -4 -397 c-3 -393 -3 -399 -27 -451 -44 -98 -113 -137 -235 -130 -91 4
-140 34 -182 111 l-29 52 -3 408 -3 407 -139 0 -140 0 0 -382z"/>
<path d="M17810 2341 l0 -601 120 0 120 0 -2 375 c-2 206 -1 375 2 375 3 -1
131 -161 285 -357 154 -195 291 -364 304 -374 19 -16 40 -19 117 -19 l94 0 0
600 0 600 -120 0 -120 0 -2 -378 -3 -378 -279 352 c-153 194 -289 363 -303
376 -20 19 -37 23 -118 26 l-95 4 0 -601z"/>
<path d="M18970 2830 l0 -110 170 0 170 0 0 -490 0 -490 140 0 140 0 0 490 0
490 165 0 165 0 0 110 0 110 -475 0 -475 0 0 -110z"/>
<path d="M20024 2925 c-3 -8 -4 -191 -2 -407 5 -425 6 -436 65 -552 53 -104
179 -196 308 -227 64 -14 226 -14 290 0 128 30 249 120 307 227 55 102 58 132
58 571 l0 403 -134 0 -135 0 -3 -402 c-3 -440 -3 -435 -64 -507 -79 -94 -260
-96 -346 -5 -62 67 -63 70 -66 512 l-3 402 -135 0 c-109 0 -136 -3 -140 -15z"/>
<path d="M21240 2340 l0 -600 135 0 135 0 2 253 3 252 40 3 c22 2 56 -1 77 -7
33 -10 49 -31 177 -229 78 -119 147 -224 154 -233 25 -33 55 -39 201 -39 l146
0 -116 178 c-257 393 -276 420 -310 438 -19 10 -34 20 -34 22 0 1 15 16 33 32
27 23 356 460 391 518 13 22 -280 14 -314 -9 -14 -9 -92 -113 -174 -232 -156
-226 -171 -242 -237 -235 l-34 3 -3 243 -2 242 -135 0 -135 0 0 -600z"/>
<path d="M20000 1233 c-51 -8 -127 -36 -194 -71 -290 -151 -392 -561 -214
-860 194 -324 705 -382 979 -112 202 199 235 537 78 785 -76 121 -212 215
-359 249 -60 15 -227 20 -290 9z m256 -240 c33 -11 67 -34 106 -73 74 -74 100
-150 100 -290 0 -140 -26 -216 -101 -291 -74 -74 -133 -93 -260 -87 -67 4 -97
10 -137 31 -116 59 -174 174 -174 347 0 197 79 325 230 371 47 14 184 10 236
-8z"/>
<path d="M23279 1218 c-113 -40 -186 -104 -229 -200 -54 -123 -23 -300 68
-379 47 -42 95 -64 238 -110 162 -53 199 -82 198 -157 -1 -93 -51 -132 -168
-132 -59 0 -75 5 -165 52 -121 63 -130 61 -197 -43 l-46 -71 23 -24 c36 -38
169 -100 255 -120 97 -21 236 -15 311 14 159 61 247 193 247 367 0 181 -79
259 -352 349 -167 56 -206 100 -168 191 20 46 62 66 143 66 54 0 78 -6 140
-35 41 -20 85 -36 97 -36 29 0 57 31 95 107 l31 62 -45 31 c-84 57 -167 82
-295 87 -101 3 -123 1 -181 -19z"/>
<path d="M16590 630 l0 -600 140 0 140 0 0 600 0 600 -140 0 -140 0 0 -600z"/>
<path d="M17100 630 l0 -600 120 0 121 0 -3 375 c-2 206 0 374 4 373 3 -2 130
-160 282 -353 152 -192 290 -360 308 -373 26 -19 44 -22 119 -22 l89 0 0 600
0 600 -120 0 -120 0 -2 -377 -3 -377 -288 365 c-159 200 -298 369 -310 376
-12 7 -60 12 -109 13 l-88 0 0 -600z"/>
<path d="M18340 630 l0 -602 303 4 c299 4 303 4 382 31 109 38 176 80 247 156
208 221 209 597 4 819 -69 74 -143 121 -251 158 -80 28 -82 28 -382 32 l-303
4 0 -602z m611 358 c107 -49 169 -142 190 -282 29 -195 -47 -369 -190 -434
-49 -23 -73 -26 -193 -30 l-138 -5 0 393 0 393 138 -5 c120 -4 144 -7 193 -30z"/>
<path d="M20890 630 l0 -600 120 0 121 0 -3 375 c-2 206 0 374 4 373 3 -2 130
-160 282 -353 152 -192 290 -360 308 -373 26 -19 44 -22 119 -22 l89 0 0 600
0 600 -120 0 -120 0 -2 -377 -3 -376 -288 364 c-159 200 -298 369 -310 376
-12 7 -60 12 -109 13 l-88 0 0 -600z"/>
<path d="M22130 630 l0 -600 385 0 385 0 0 105 0 105 -245 0 -245 0 0 145 0
145 190 0 191 0 -3 103 -3 102 -187 3 -188 2 0 140 0 140 245 0 245 0 0 105 0
105 -385 0 -385 0 0 -600z"/>
<path d="M23980 630 l0 -600 140 0 140 0 0 600 0 600 -140 0 -140 0 0 -600z"/>
<path d="M24625 643 c-125 -324 -229 -594 -232 -600 -4 -10 24 -13 120 -13
162 0 163 1 214 155 l37 115 231 0 231 0 37 -115 c51 -154 52 -155 214 -155
96 0 124 3 120 12 -3 7 -107 277 -232 601 l-228 587 -142 0 -142 0 -228 -587z
m456 80 l77 -233 -163 0 -163 0 81 245 c45 134 84 239 86 232 2 -6 39 -117 82
-244z"/>
</g>
</svg>
